<svg xmlns="http://www.w3.org/2000/svg" viewBox="0 0 256 256">
  <defs>
    <linearGradient id="g" x1="0" x2="1" y1="0" y2="1">
      <stop offset="0%" stop-color="#0ea5e9"/>
      <stop offset="100%" stop-color="#6366f1"/>
    </linearGradient>
  </defs>
  <rect width="256" height="256" rx="48" fill="url(#g)"/>
  <g fill="#fff" transform="translate(36,36)">
    <path d="M88 0c8.8 0 16 7.2 16 16v52h28c6.6 0 12 5.4 12 12s-5.4 12-12 12H16c-8.8 0-16-7.2-16-16V16C0 7.2 7.2 0 16 0h72z" opacity=".9"/>
    <path d="M24 120c0-6.6 5.4-12 12-12h116c8.8 0 16 7.2 16 16v44c0 8.8-7.2 16-16 16H36c-6.6 0-12-5.4-12-12v-52z" opacity=".9"/>
    <circle cx="56" cy="56" r="12"/>
    <rect x="92" y="40" width="72" height="16" rx="8"/>
  </g>
</svg>
